<svg id="圖層_1" data-name="圖層 1" xmlns="http://www.w3.org/2000/svg" xmlns:xlink="http://www.w3.org/1999/xlink" viewBox="0 0 497.49 497.9"><defs><style>.cls-1{fill:url(#未命名漸層_12);}.cls-2{fill:url(#未命名漸層_14);}.cls-3{fill:url(#未命名漸層_16);}.cls-4{fill:url(#未命名漸層_18);}.cls-5{fill:url(#未命名漸層_20);}.cls-6{fill:none;}.cls-7{clip-path:url(#clip-path);}.cls-8{clip-path:url(#clip-path-2);}.cls-9{fill:#204677;}.cls-10{fill:#de8534;}.cls-11{opacity:0.27;}.cls-12{clip-path:url(#clip-path-3);}.cls-13{fill:#b81c25;}.cls-14{clip-path:url(#clip-path-4);}.cls-15{clip-path:url(#clip-path-5);}.cls-16{mask:url(#mask);}.cls-17{fill:url(#未命名漸層_11);}.cls-18{clip-path:url(#clip-path-6);}.cls-19{mask:url(#mask-2);}.cls-20{fill:url(#未命名漸層_13);}.cls-21{clip-path:url(#clip-path-8);}.cls-22{mask:url(#mask-3);}.cls-23{fill:url(#未命名漸層_15);}.cls-24{opacity:0.45;}.cls-25{clip-path:url(#clip-path-10);}.cls-26{fill:#040000;}.cls-27{clip-path:url(#clip-path-11);}.cls-28{mask:url(#mask-4);}.cls-29{fill:url(#未命名漸層_17);}.cls-30{clip-path:url(#clip-path-13);}.cls-31{mask:url(#mask-5);}.cls-32{fill:url(#未命名漸層_19);}</style><linearGradient id="未命名漸層_12" y1="1885.47" x2="1" y2="1885.47" gradientTransform="matrix(0, 98.03, 98.03, 0, -184546.05, 1453.56)" gradientUnits="userSpaceOnUse"><stop offset="0" stop-color="#fff"/><stop offset="0.42" stop-color="#fff"/><stop offset="0.72" stop-color="#bcbcbc"/><stop offset="1" stop-color="gray"/></linearGradient><linearGradient id="未命名漸層_14" y1="1885.5" x2="1" y2="1885.5" gradientTransform="matrix(66.54, 0, 0, -66.54, 365.55, 126978.43)" gradientUnits="userSpaceOnUse"><stop offset="0" stop-color="gray"/><stop offset="0.05" stop-color="#959595"/><stop offset="0.15" stop-color="#bbb"/><stop offset="0.24" stop-color="#d9d9d9"/><stop offset="0.34" stop-color="#eee"/><stop offset="0.43" stop-color="#fbfbfb"/><stop offset="0.52" stop-color="#fff"/><stop offset="0.54" stop-color="#fff"/><stop offset="1" stop-color="#fff"/></linearGradient><linearGradient id="未命名漸層_16" y1="1885.55" x2="1" y2="1885.55" gradientTransform="matrix(90.38, -212.92, -215.26, -89.32, 406174.73, 170196.04)" gradientUnits="userSpaceOnUse"><stop offset="0" stop-color="#fff"/><stop offset="0.3" stop-color="#fff"/><stop offset="0.71" stop-color="#fff"/><stop offset="0.75" stop-color="#f7f7f7"/><stop offset="0.81" stop-color="#e0e0e0"/><stop offset="0.89" stop-color="#bbb"/><stop offset="0.99" stop-color="#888"/><stop offset="1" stop-color="gray"/></linearGradient><linearGradient id="未命名漸層_18" y1="1885.46" x2="1" y2="1885.46" gradientTransform="matrix(-147.94, 0, 0, 147.94, 398.53, -277420.86)" gradientUnits="userSpaceOnUse"><stop offset="0" stop-color="gray"/><stop offset="0.07" stop-color="#838383"/><stop offset="0.13" stop-color="#8e8e8e"/><stop offset="0.19" stop-color="#9f9f9f"/><stop offset="0.24" stop-color="#b7b7b7"/><stop offset="0.29" stop-color="#d7d7d7"/><stop offset="0.34" stop-color="#fdfdfd"/><stop offset="0.34" stop-color="#fff"/><stop offset="1" stop-color="#fff"/></linearGradient><linearGradient id="未命名漸層_20" y1="1885.42" x2="1" y2="1885.42" gradientTransform="matrix(0, 141.59, 141.59, 0, -266547.86, 1490.47)" gradientUnits="userSpaceOnUse"><stop offset="0" stop-color="gray"/><stop offset="0.12" stop-color="#a4a4a4"/><stop offset="0.39" stop-color="#fefefe"/><stop offset="0.39" stop-color="#fff"/><stop offset="1" stop-color="#fff"/></linearGradient><clipPath id="clip-path" transform="translate(-103.49 -1295.33)"><rect class="cls-6" width="1353.32" height="1885.49"/></clipPath><clipPath id="clip-path-2" transform="translate(-103.49 -1295.33)"><rect class="cls-6" width="1353.32" height="1885.49"/></clipPath><clipPath id="clip-path-3" transform="translate(-103.49 -1295.33)"><rect class="cls-6" x="358.43" y="1565.36" width="0.94" height="0.6"/></clipPath><clipPath id="clip-path-4" transform="translate(-103.49 -1295.33)"><rect class="cls-6" x="357.55" y="1564.76" width="0.88" height="0.59"/></clipPath><clipPath id="clip-path-5" transform="translate(-103.49 -1295.33)"><path class="cls-6" d="M243,1481.39a71.91,71.91,0,0,0-12,2.94l9.56,15.42c.85-.22,1.7-.43,2.58-.61a60.24,60.24,0,0,1,26.25.69,96.84,96.84,0,0,1,32.41,14.79c5.87,4,11.53,8.36,17.21,12.65l1,.78,6.75-17-1.23-.91c-4.55-3.41-9.09-6.84-13.81-10-12.07-8.14-25.06-14.38-39.36-17.61a80.8,80.8,0,0,0-17.93-2.06,74.28,74.28,0,0,0-11.48.89"/></clipPath><mask id="mask" x="105.2" y="140.15" width="140.49" height="137.58" maskUnits="userSpaceOnUse"><g transform="translate(-103.49 -1295.33)"><rect class="cls-1" x="231.99" y="1451.4" width="93.9" height="105.75" transform="translate(-1113.29 869.95) rotate(-55)"/></g></mask><linearGradient id="未命名漸層_11" y1="1885.47" x2="1" y2="1885.47" gradientTransform="matrix(0, 98.03, 98.03, 0, -184546.05, 1453.57)" gradientUnits="userSpaceOnUse"><stop offset="0" stop-color="#de8634"/><stop offset="0.42" stop-color="#de8634"/><stop offset="1" stop-color="#de8634"/></linearGradient><clipPath id="clip-path-6" transform="translate(-103.49 -1295.33)"><path class="cls-6" d="M395.6,1505.89a195.47,195.47,0,0,0-24.93,31.72l-.59.93,14.46,9.93c2.31-3.51,4.61-7,7-10.4a145.91,145.91,0,0,1,19.65-22.89A66,66,0,0,1,425.4,1505l-9.25-14.92a87.34,87.34,0,0,0-20.55,15.79"/></clipPath><mask id="mask-2" x="238.27" y="167.92" width="111.96" height="112.05" maskUnits="userSpaceOnUse"><g transform="translate(-103.49 -1295.33)"><rect class="cls-2" x="357.71" y="1479.52" width="80.06" height="79.53" transform="translate(-1044.34 897.34) rotate(-52)"/></g></mask><linearGradient id="未命名漸層_13" y1="1885.5" x2="1" y2="1885.5" gradientTransform="matrix(66.54, 0, 0, -66.54, 365.55, 126978.44)" gradientUnits="userSpaceOnUse"><stop offset="0" stop-color="#de8634"/><stop offset="0.52" stop-color="#de8634"/><stop offset="0.54" stop-color="#de8634"/><stop offset="1" stop-color="#de8634"/></linearGradient><clipPath id="clip-path-8" transform="translate(-103.49 -1295.33)"><path class="cls-6" d="M353.42,1573.2c-3.87,10.9-7.55,21.84-7.29,33.72,0,2,.1,4,.25,5.95a47.45,47.45,0,0,0,.82,6.16c.09.34.17.67.27,1a111.21,111.21,0,0,0,6.35,15.67l.3.64c.45.94.87,1.88,1.27,2.82a54.85,54.85,0,0,1,4.12,14.66,56.1,56.1,0,0,1-3.39,27.07,79.42,79.42,0,0,1-6.33,10.25c-7.89,9.79-7.91,15.41-8,18.95s-1.65,4.08-1.57-4.87,8.75-19.69,12.25-27.44,5-9.13-.21-7.7-17.46,13.56-17.8,17.52-7.15,12.59-10.32,15.13-12.5,2.15-3,3.27,12.46-5.17,12.46-5.17-.68,9.17.52,16,10.55,16,16.85,14.76a22.13,22.13,0,0,1,7.66-.2c1.35.2,2,.39,1.86.07-.31-.73-1.44-2.79-7.29-5.11s-4.3-13.88,3.07-17.53,14.48-11.54,14.48-11.54c.55,3.53-.53,5.73-4.18,9.94s-4.25,11.3-1.61,6.38,7.32-7.08,11.17-10.78,2.81-14.61,0-19.87-10.17-17.35-10.17-17.35c2.12-22.36-5.6-35.2-8.48-50.79a51.84,51.84,0,0,1,3-20,162.19,162.19,0,0,1,8.52-19.8l-4.42-3.31-7.37-5.52-.89-.54c-1,2.49-2.05,5-3,7.54"/></clipPath><mask id="mask-3" x="147.85" y="246.2" width="189.07" height="215.44" maskUnits="userSpaceOnUse"><g transform="translate(-103.49 -1295.33)"><polygon class="cls-3" points="251.34 1707.81 321.92 1541.53 440.41 1590.69 369.83 1756.97 251.34 1707.81"/></g></mask><linearGradient id="未命名漸層_15" y1="1885.55" x2="1" y2="1885.55" gradientTransform="matrix(90.38, -212.92, -215.26, -89.32, 406071.27, 168900.72)" gradientUnits="userSpaceOnUse"><stop offset="0" stop-color="#de8634"/><stop offset="0.3" stop-color="#de8634"/><stop offset="0.71" stop-color="#de8634"/><stop offset="1" stop-color="#de8634"/></linearGradient><clipPath id="clip-path-10" transform="translate(-103.49 -1295.33)"><rect class="cls-6" x="445.48" y="1558.14" width="1" height="0.12"/></clipPath><clipPath id="clip-path-11" transform="translate(-103.49 -1295.33)"><path class="cls-6" d="M360.27,1456c-2.27,3.75-3.41,2.84-3.41,2.84a13,13,0,0,1-1.09.89,4.19,4.19,0,0,1-7.3,0c-.37-.31-.68-.49-1.09-.89,0,0-1.13.91-3.4-2.84-.12-.19-.21-.36-.31-.54a51.71,51.71,0,0,1-.43,5.32c-2.61,18.3-9.37,46.83-11.72,53.81s-3.47,11-6.75,17.09-4.34,8.37-7.6,11.82a135,135,0,0,1-29.27,23.87c-1.32.78-2.65,1.51-4,2.23l9.24,14.9A141,141,0,0,0,322,1563.42c5.47-5.11,10.84-10.32,14.66-16.87.72-1.23-.11.7,2.21-3.76a125.53,125.53,0,0,0,7.58-17.64c2.08-6.42,3.11-9.4,4.46-14.16a352.78,352.78,0,0,0,8.87-42.06c.31-2,.55-3.94.84-6,.47-3.56.73-8.87.79-10.12a6.5,6.5,0,0,1-1.1,3.22"/></clipPath><mask id="mask-4" x="134.66" y="130.54" width="168.96" height="185.53" maskUnits="userSpaceOnUse"><g transform="translate(-103.49 -1295.33)"><rect class="cls-4" x="247.07" y="1458.06" width="151.15" height="121.16" transform="translate(-1206.28 1248.89) rotate(-68)"/></g></mask><linearGradient id="未命名漸層_17" y1="1885.46" x2="1" y2="1885.46" gradientTransform="matrix(-147.94, 0, 0, 147.94, 398.53, -277420.86)" gradientUnits="userSpaceOnUse"><stop offset="0" stop-color="#de8634"/><stop offset="0.32" stop-color="#de8634"/><stop offset="0.34" stop-color="#de8634"/><stop offset="1" stop-color="#de8634"/></linearGradient><clipPath id="clip-path-13" transform="translate(-103.49 -1295.33)"><path class="cls-6" d="M430.73,1528.38a14.36,14.36,0,0,0,.92,18,12.45,12.45,0,0,0,1.52,1.38,22,22,0,0,1,2.41,2h0c1.44,1.3,4.57,3.09-.15,5.77s-9,8.17-6.32,14.74a16.58,16.58,0,0,1,.92,3c-4.55-.89-9.07-1.93-13.55-3.2-1.25-.35-2.48-.73-3.7-1.13-2.1-.67-4.16-1.4-6.2-2.19a119.4,119.4,0,0,1-24.58-13c-.13-.09-7.81-5.27-13.66-9.87-.21-.1-1.36-1.16-1.48-1.25l-16.41-13-6.58,17.13q7,5.58,14.12,11.16a145.1,145.1,0,0,0,15.1,11.06c.45.27.79.46,1.12.67A132.44,132.44,0,0,0,411,1586.74a214.08,214.08,0,0,0,34.31,6.62,77.26,77.26,0,0,0,28.1-1.49q2.52-.64,4.93-1.45l-1.45-2.34L468.79,1575c-.56.13-1.12.26-1.7.37a63.84,63.84,0,0,1-18.91.72l-.55,0a11.69,11.69,0,0,1,.81,1.08c2.63,3.92,2.47,8.83-3.66,11-6.79,2.44-10-6.28-6.08-8.09s1.92-.47,1.2,2.81,5.47,4.77,7.29,1c.68-1.41.25-3.29-.83-5.2l0,0c-.1-.13-.52-.71-1.47-1.81-.31-.36-.68-.78-1.11-1.25-.94-1-2.2-2.38-3.83-4-.48-.5-1-1-1.55-1.56-6.25-6.19.45-11.68,3.26-11.36a14.56,14.56,0,0,0,3.84-.32c.34,0,.67-.1,1-.13a3.46,3.46,0,0,1,2.84.74h0c2.69,2.5,11.3,12.34,19.56,2.93,8.7-9.9.87-21.76.87-21.76.63,1.37,1.38,12.44-.39,13.59-3.13,4.21-2.74.36-2.56-4.5s-4.94-10-4.94-10c4.16,7.35,1.46,17.86-2.77,16.92s-2-.84-1.7-6.58-5.08-10.77-5.08-10.77c2.85,4.87,1.22,11.15.67,12.25s-1.36,3.87-2.75-3.26-6.89-8.57-6.89-8.57c4.05,4.31,4.85,11.37,2.15,11.43s-7.64-5.4-12.72-13.79,8.68-13.43,8.68-13.43a7.64,7.64,0,0,0-1.05-.06,12,12,0,0,0-9.67,5.1"/></clipPath><mask id="mask-5" x="206.95" y="164.77" width="201.36" height="197.54" maskUnits="userSpaceOnUse"><g transform="translate(-103.49 -1295.33)"><rect class="cls-5" x="343.41" y="1483.38" width="135.44" height="150.98" transform="translate(-1101.64 1001.51) rotate(-55)"/></g></mask><linearGradient id="未命名漸層_19" y1="1885.42" x2="1" y2="1885.42" gradientTransform="matrix(0, 141.59, 141.59, 0, -266547.86, 1490.47)" gradientUnits="userSpaceOnUse"><stop offset="0" stop-color="#de8634"/><stop offset="0.39" stop-color="#de8634"/><stop offset="1" stop-color="#de8634"/></linearGradient></defs><title>test</title><g class="cls-7"><g class="cls-8"><path class="cls-9" d="M164.4,1695.59c-16.51-7.57-29.43-20.1-43.21-31.53-4.73-3.76-10.55-6.09-14.88-10.36,7.63-3.45,16.33-3.88,24.62-3.21,11.38,1.19,18.26,10.73,26.58,17.3,7.57,5.37,16.07,9.43,24.27,13.78a97.06,97.06,0,0,1,11.6,5c-4.33,4.51-12.15,4.1-17.54,2.49-4.68-2.26-9.46-4.39-14-6.85-5.07-3-9.65-6.89-14.45-10.33a3.31,3.31,0,0,0-1.13-.32l-.35.52c1.8,1.77,3.51,3.65,5.43,5.27,1.54,1.3,3.53,2.09,5,3.45,6.53,5.49,13.11,7.46,20.57,11.32,5.64,2.45,6,.44,10.33,2.13a9.51,9.51,0,0,1-1.82,1.14c-3.76,1.34-7,3.48-10.46,5.49-1.77,1-2.85,2.52-4.35,3.65-3.49,2.31-6.89,4.13-10.54,6.46.61.87,8-3.76,9.38-4.36,2.74-1.56,5.29-3.5,8.11-4.86a78,78,0,0,1,8.11-2.89c1.65-.47,3.22-1.58,4.92-1.72,2.68.81,6.73.59,6.74,4.36a86,86,0,0,0,3.59,14.94,48.52,48.52,0,0,1,2,7c.07,1.07,1.17,2.82,1.88,2.52s.3-2,.16-2.86c-.15-1-1.19-8.08-2.14-10.45-1.47-6-5.6-14-.71-19.41,2.74.76,6,1,7.5,3.87,7.67,11.87,6.64,26.91,1.55,39.54-1,2.74-2,5.49-2.84,8.27a13.21,13.21,0,0,0-.63,3.68,2,2,0,0,1-1.74,2.2,3.07,3.07,0,0,1-2.44-.93c-7.22-9-13.59-19.26-12.59-31.28-.18-2.36,1.53-8.9-2.83-7.07a91.22,91.22,0,0,0-12,5.16c-7.18,4.07-14.59,7.45-22.71,9.07a35.43,35.43,0,0,1-7.65.89c-7.19-.18-13.82,1.75-20.26,4.65-1.31.5-2.88,1.74-4.23.81-.23-.2-.17-1,0-1.4,8.32-17.43,23.11-32.17,43.05-34.69l0-.48" transform="translate(-103.49 -1295.33)"/><path class="cls-9" d="M540.14,1695.59c16.51-7.57,29.43-20.1,43.22-31.53,4.73-3.76,10.55-6.09,14.88-10.36-7.63-3.45-16.34-3.88-24.63-3.21-11.38,1.19-18.25,10.73-26.57,17.3-7.58,5.37-16.08,9.43-24.27,13.78a96.49,96.49,0,0,0-11.61,5c4.33,4.51,12.15,4.1,17.55,2.49,4.67-2.26,9.46-4.39,14-6.85,5.07-3,9.64-6.89,14.44-10.33a3.37,3.37,0,0,1,1.13-.32l.36.52c-1.81,1.77-3.52,3.65-5.44,5.27-1.54,1.3-3.52,2.09-5,3.45-6.53,5.49-13.11,7.46-20.57,11.32-5.65,2.45-6,.44-10.33,2.13a9.21,9.21,0,0,0,1.82,1.14c3.75,1.34,7.05,3.48,10.46,5.49,1.76,1,2.84,2.52,4.34,3.65,3.49,2.31,6.9,4.13,10.55,6.46-.61.87-8-3.76-9.38-4.36-2.75-1.56-5.29-3.5-8.12-4.86a77.23,77.23,0,0,0-8.11-2.89c-1.65-.47-3.21-1.58-4.92-1.72-2.68.81-6.73.59-6.74,4.36a86,86,0,0,1-3.58,14.94,47.28,47.28,0,0,0-2,7c-.08,1.07-1.17,2.82-1.88,2.52s-.3-2-.17-2.86c.16-1,1.19-8.08,2.15-10.45,1.47-6,5.6-14,.71-19.41-2.75.76-6,1-7.51,3.87-7.67,11.87-6.63,26.91-1.55,39.54,1,2.74,2,5.49,2.84,8.27a13.21,13.21,0,0,1,.63,3.68,2,2,0,0,0,1.74,2.2,3.07,3.07,0,0,0,2.44-.93c7.23-9,13.59-19.26,12.6-31.28.17-2.36-1.54-8.9,2.82-7.07a91.22,91.22,0,0,1,11.95,5.16c7.18,4.07,14.59,7.45,22.71,9.07a35.52,35.52,0,0,0,7.66.89c7.18-.18,13.81,1.75,20.25,4.65,1.32.5,2.88,1.74,4.24.81.23-.2.17-1,0-1.4-8.31-17.43-23.11-32.17-43-34.69Z" transform="translate(-103.49 -1295.33)"/><path class="cls-10" d="M397.6,1401a44.41,44.41,0,0,0-8.45,0c-1.84.33-.65-2,2.27-4.87s6.29-10.73,6.18-16.58-.22-2.71-4.44,2.93-8.56,11.81-14.09,15.17c0,0,.33-2.5-2.06.54s-6.39,7.8-6.28,6.5,1-7-.11-9.64-1-.87-2.17,1.19a35.36,35.36,0,0,1-7.47,7.58c-1.84,1.19-2.6,1.09-2.71-2.27s-4.23-6.07-4.66-10c-.41-2-.86-3-1.32-3.17-.06,0-.11-.18-.17-.18s-.11.15-.16.18c-.46.21-.92,1.2-1.33,3.17-.43,3.9-4.55,6.61-4.66,10s-.86,3.46-2.71,2.27a35.36,35.36,0,0,1-7.47-7.58c-1.19-2.06-1.09-3.79-2.17-1.19s-.22,8.34-.11,9.64-3.9-3.47-6.28-6.5-2.06-.54-2.06-.54c-5.53-3.36-9.86-9.54-14.09-15.17s-4.33-8.78-4.44-2.93,3.25,13.65,6.18,16.58,4.12,5.2,2.27,4.87a44.41,44.41,0,0,0-8.45,0c-3.14.22-3.36,1.41,0,4.12s6.83,1,13.11,2.49,7.37,3.58,8.78,5.42,5,2.6,1.52,2.49-7.7,1.09-10.3,1.09-3.68-.11-1.73,1.95,6.17,4.55,8.93,4.55,2,1.41,1.47,2.06a26.17,26.17,0,0,1-6.83,6.28c-4.33,2.82-10.51,2.49-3.35,5.31a16.33,16.33,0,0,0,12.67,0c-4.11,8.67-2.06,6.72,3,4.66a8.48,8.48,0,0,1,4.69-.44s1.38-1.52-1.55-4.44-4.34-5-3.36-9.32.87-1.84,1.19,2.17,5.31,5,7.37,12-.11,7.37,2.06,10.94,3.25,2.71,3.25,2.71c.38.38.69.55,1,.85a4,4,0,0,0,7,0,12.19,12.19,0,0,0,1-.85s1.09.87,3.25-2.71,0-3.9,2.06-10.94,7.05-8,7.37-12,.22-6.5,1.19-2.17.42,5.75-2.51,8.67-3.44,5.09-3.44,5.09a12.67,12.67,0,0,1,5.74.44c5.09,2.06,7.15,4,3-4.66a16.36,16.36,0,0,0,12.68,0c7.15-2.82,1-2.49-3.36-5.31a26.17,26.17,0,0,1-6.83-6.28c-.54-.65-1.28-2.06,1.47-2.06s7-2.49,8.93-4.55.87-1.95-1.73-1.95-6.83-1.19-10.29-1.09.1-.65,1.51-2.49,2.5-3.9,8.78-5.42,9.75.22,13.11-2.49,3.14-3.9,0-4.12" transform="translate(-103.49 -1295.33)"/><path class="cls-9" d="M601,1539.4c-.46-18.68-5.3-36.29-13.45-53a135.18,135.18,0,0,0-61-62.34,128.14,128.14,0,0,0-27-10.26c.87-.1,1.16-.2.46-.28-3.07-.37,4.22-3.78,4.22-3.78a29.21,29.21,0,0,1,4.85-1.94,21.73,21.73,0,0,1,5.63-.41,48,48,0,0,1,8.27,1.34l5.6,1.33a1.83,1.83,0,0,0,.46.07,10.77,10.77,0,0,1,4.16.84,24.47,24.47,0,0,1,2.84,1.33,8.09,8.09,0,0,0,2.61.9c1,.17,1.93.3,2.9.43a26.6,26.6,0,0,1,3.55.61,8.82,8.82,0,0,1,3.42,1.71,7,7,0,0,1,.55.54c.31.3.6.62.92.89a26.79,26.79,0,0,0,3.61,2.56,38.45,38.45,0,0,0,7,3.41,16.43,16.43,0,0,0,3,.82,6.92,6.92,0,0,0,1.64.06,1.78,1.78,0,0,0,.87-.27.6.6,0,0,0,.3-.56,1.47,1.47,0,0,0-.38-1,4.92,4.92,0,0,0-.76-.68,7.09,7.09,0,0,0-1.67-.9c-1-.39-2-.76-3-1.13a32.44,32.44,0,0,1-3.05-1.24,8.81,8.81,0,0,1-1.48-.94,4.21,4.21,0,0,1-1.1-1.34c-.16-.31-.33-.63-.5-1a8.33,8.33,0,0,1,2.63-1.07,12.42,12.42,0,0,1,3.28-.05c1.23.11,2.45.33,3.68.39a9.64,9.64,0,0,0,1.7-.06,1.7,1.7,0,0,0,.45-.08,1.06,1.06,0,0,0,.62-1.47.91.91,0,0,0-.59-.46,1.38,1.38,0,0,1-.7-.38,1.26,1.26,0,0,0-.56-.26,11.36,11.36,0,0,0-2-.4c-2-.25-4-.36-6-.43-3-.11-6.1-.19-9.15-.32-1.49-.06-3-.18-4.47-.31a12.2,12.2,0,0,1-2.33-.39,9.06,9.06,0,0,1-.88-.29,2.39,2.39,0,0,1-.49-.28,1.62,1.62,0,0,1-.32-2.47,3.56,3.56,0,0,1,1.26-1,16,16,0,0,1,3-1,19.32,19.32,0,0,1,5.67-.46,41.24,41.24,0,0,1,6.45,1c1.82.41,3.64.84,5.47,1.24a30.89,30.89,0,0,0,4.06.64c.82.07,1.64.08,2.47.1.3,0,.61-.06.92-.08s.89-.09,1.33-.1a32.12,32.12,0,0,1,3.8.17c1.73.15,3.46.31,5.19.42.94.06,1.88,0,2.83,0a6.93,6.93,0,0,0,1.92-.3,3.35,3.35,0,0,0,.75-.33.84.84,0,0,0,.24-1.22,2.09,2.09,0,0,0-.68-.61,3.75,3.75,0,0,0-1.41-.48c-.62-.1-1.25-.18-1.88-.26a30.84,30.84,0,0,0-3.59-.29l-7.1-.1a48.29,48.29,0,0,1-6-.42,21.68,21.68,0,0,1-6.53-1.95l-.13-.08a.78.78,0,0,0,0-.07,4.18,4.18,0,0,1,1.63-2.5,12,12,0,0,1,1.16-.66c.51-.25,1-.46,1.54-.72a8,8,0,0,0,1-.56,1.64,1.64,0,0,0,.4-.39.56.56,0,0,0-.14-.81,2.69,2.69,0,0,0-2.22-.55,6.86,6.86,0,0,0-1.72.53c-.62.29-1.24.59-1.84.92-.8.43-1.58.9-2.37,1.35a22.23,22.23,0,0,1-3.14,1.53,8.13,8.13,0,0,1-3.27.55,10,10,0,0,0-2.61.27c-1.71.37-3.37.91-5,1.45s-3.12,1-4.72,1.43a17.58,17.58,0,0,1-3.75.61,7.67,7.67,0,0,1-2.34-.24,5.55,5.55,0,0,1-1.41-.62,1,1,0,0,1-.36-.42,2,2,0,0,1,.43-2.41,3.49,3.49,0,0,1,.92-.65,13.24,13.24,0,0,0,2.41-1.66l2.08-1.69a13.15,13.15,0,0,1,2.78-1.75,11,11,0,0,1,1.24-.49c2-.63,4-1.23,6-1.7q2.61-.6,5.25-1a52.27,52.27,0,0,1,7.7-.54,41.3,41.3,0,0,1,13.05,2.09,37,37,0,0,1,9.88,5.11,7.76,7.76,0,0,0,2.82,1.32,2.82,2.82,0,0,0,.87.07.82.82,0,0,0,.79-1,1.67,1.67,0,0,0-.33-.8,4.92,4.92,0,0,0-.68-.76c-.46-.39-.93-.76-1.42-1.11-.85-.61-1.72-1.19-2.58-1.79a4,4,0,0,1-.58-.51,1.71,1.71,0,0,1,.06-2.41,3,3,0,0,1,.79-.57,10.24,10.24,0,0,1,2.34-.79c1.31-.31,2.65-.53,4-.74l4.37-.71a3.71,3.71,0,0,0,1.08-.31,2.34,2.34,0,0,1,.4-.1,7.64,7.64,0,0,0,1.55-.52,5.78,5.78,0,0,0,.8-.47,1.6,1.6,0,0,0,.41-.45.7.7,0,0,0-.11-1,2.51,2.51,0,0,0-1.46-.68,7.79,7.79,0,0,0-2.41,0c-1.36.19-2.69.54-4,.82-.91.2-1.82.39-2.73.53a7,7,0,0,1-2.1.07l-.21,0a1.69,1.69,0,0,1-1.36-2.31,4.38,4.38,0,0,1,.48-1c.31-.47.66-.92,1-1.38s.6-.84.88-1.27a6.24,6.24,0,0,0,.35-.68,1.54,1.54,0,0,0,.12-.34.7.7,0,0,0-.57-1,2.64,2.64,0,0,0-1.81.17,5.12,5.12,0,0,0-1.37,1,13.74,13.74,0,0,0-1.58,1.83c-.53.72-1,1.45-1.56,2.17a27.18,27.18,0,0,1-2.37,3,10.49,10.49,0,0,1-1.8,1.53,6,6,0,0,1-3,1,6.21,6.21,0,0,1-2.13-.3,6.92,6.92,0,0,1-.86-.33l-1.9-.91a3.54,3.54,0,0,1-.64-.42,1.55,1.55,0,0,1-.42-1.87,2,2,0,0,1,.17-.32,6.19,6.19,0,0,1,1.32-1.43,3.46,3.46,0,0,0,1.38-2,2.39,2.39,0,0,0,.05-.92,1,1,0,0,0-1.06-1,2.24,2.24,0,0,0-1.4.44c-1.82,1.37-3.66,2.72-5.58,4a34.66,34.66,0,0,1-6.35,3.27,30.36,30.36,0,0,1-6.16,1.61c-1.08.17-2.17.28-3.27.38-.32,0-.65,0-1,0a2.94,2.94,0,0,1-.66-.11,1.82,1.82,0,0,1-1.27-2.3,2.94,2.94,0,0,1,.44-.93A5.22,5.22,0,0,1,542,1384a2.19,2.19,0,0,1,.7-.18,11.76,11.76,0,0,0,2.36-.48,42.22,42.22,0,0,0,5.95-2.14l1.78-.8a4.61,4.61,0,0,0,1.18-.72,2.59,2.59,0,0,0,.45-.49.77.77,0,0,0-.36-1.22,2.37,2.37,0,0,0-.6-.12,4.54,4.54,0,0,0-1.37.15,25,25,0,0,0-2.42.72c-.76.26-1.53.49-2.3.72a3.19,3.19,0,0,1-1,.15,1.7,1.7,0,0,1-1.66-1.53,3.82,3.82,0,0,1,0-1.12c0-.05,0-.1,0-.15a1.25,1.25,0,0,0-1.18-1.62,1.44,1.44,0,0,0-1.37.54c-.44.53-.86,1.07-1.3,1.59s-.94,1.14-1.44,1.69a8.46,8.46,0,0,1-1,.9,5.66,5.66,0,0,1-3.51,1.28,14,14,0,0,0-2.14.24,7.86,7.86,0,0,1-1.74.14,4.19,4.19,0,0,1-.71-.1,2.13,2.13,0,0,1-1.73-2,4,4,0,0,1,0-.77c.06-.44.15-.88.2-1.32a5.42,5.42,0,0,0,0-1.84,1.71,1.71,0,0,0-.09-.3,1,1,0,0,0-1.17-.7.71.71,0,0,0-.56.33,3.79,3.79,0,0,0-.45.81,11,11,0,0,0-.49,1.67,17.47,17.47,0,0,1-2.41,6c-.76,1.25-1.64,2.42-2.51,3.58-1,1.33-2,2.66-3,4a16.42,16.42,0,0,0-1.5,2.52,16.1,16.1,0,0,1-5.8,6.47,24.9,24.9,0,0,1-5.62,2.65,46.44,46.44,0,0,1-5.81,1.54c-2.13.43-4.28.83-6.41,1.24a8.48,8.48,0,0,1-1.58.23,3.86,3.86,0,0,1-1.07-.11,2.19,2.19,0,0,1-1.64-2.07A4.2,4.2,0,0,1,489,1402a11.11,11.11,0,0,1,.89-2.14,36.7,36.7,0,0,1,2.2-3.59l2.26-3.26a29.25,29.25,0,0,0,1.65-2.6,20,20,0,0,1,2.94-4,31.45,31.45,0,0,1,4.73-4c1.52-1.09,3.1-2.09,4.68-3.09s3-1.89,4.42-2.92a3,3,0,0,0,.51-.42,6.82,6.82,0,0,1,3.76-2.1,13.59,13.59,0,0,0,4.27-1.72,41.3,41.3,0,0,0,3.63-2.53c.54-.4,1.07-.81,1.6-1.22a6.78,6.78,0,0,1,4.73-1.41,18.3,18.3,0,0,0,6.69-.9,37.06,37.06,0,0,0,4.86-2c1.49-.71,3-1.43,4.43-2.17a8,8,0,0,0,1-.68,1.37,1.37,0,0,0,.35-.37.55.55,0,0,0-.07-.75,1.64,1.64,0,0,0-.75-.42,3.29,3.29,0,0,0-1.53.06,9.63,9.63,0,0,0-1.9.63l-3.13,1.45a26.26,26.26,0,0,1-2.84,1.2,7.91,7.91,0,0,1-2.41.5,4.9,4.9,0,0,1-1.82-.26l-.7-.24a.36.36,0,0,1-.05-.13,5.63,5.63,0,0,1,1.39-3.2,12.52,12.52,0,0,1,1.78-1.63c.65-.5,1.33-1,2-1.47s1.2-.92,1.78-1.4a7.24,7.24,0,0,0,.85-.9,2.21,2.21,0,0,0,.49-1,1.48,1.48,0,0,0-.07-.86c-.07-.21-.21-.27-.45-.23l-.1,0a13.64,13.64,0,0,0-2.29,1c-1.11.79-2.16,1.64-3.18,2.53-2.31,2-4.53,4.15-6.78,6.24-1.7,1.59-3.4,3.2-5.2,4.69-.75.62-1.53,1.21-2.31,1.8a6.89,6.89,0,0,1-1.51.87,3,3,0,0,1-1,.26,1.71,1.71,0,0,1-1.81-1.54,2.86,2.86,0,0,1,.09-1.12,17.69,17.69,0,0,1,3.73-6.57,27.43,27.43,0,0,1,4.26-3.79c1.34-1,2.74-1.89,4.14-2.79,1.67-1.07,3.36-2.13,5-3.31a28.16,28.16,0,0,0,3.5-3,6.73,6.73,0,0,0,.59-.71,14.08,14.08,0,0,1,1.55-1.72c1.11-1,2.31-2,3.5-3,1-.81,2-1.62,3-2.45a17.09,17.09,0,0,0,1.88-1.83,7.71,7.71,0,0,0,1-1.31,3.69,3.69,0,0,0,.43-1,2.68,2.68,0,0,0,.05-.3,2.35,2.35,0,0,0,0-.26,1.23,1.23,0,0,0-1,0,7.94,7.94,0,0,0-1.14.45,11.69,11.69,0,0,0-2,1.24,45.48,45.48,0,0,0-4.21,3.63c-1.85,1.76-3.68,3.54-5.54,5.3a44.18,44.18,0,0,1-4.29,3.69,16,16,0,0,1-2.36,1.46,6.05,6.05,0,0,1-2.9.6,3.54,3.54,0,0,1-.48-3c.14-.48.34-.94.52-1.4s.3-.66.43-1,.17-.59.26-.89.1-.32.16-.48a1.81,1.81,0,0,0,.12-.76,1.16,1.16,0,0,0-.09-.4.74.74,0,0,0-1.15-.32,1.23,1.23,0,0,0-.35.37,3.16,3.16,0,0,0-.34.69,55.31,55.31,0,0,1-3.61,8.46c-1.36,2.62-2.87,5.15-4.4,7.67s-3,4.93-4.43,7.42a24.21,24.21,0,0,1-2.31,3.28,12.44,12.44,0,0,1-1.07,1.11,5.94,5.94,0,0,1-1,.68,2.08,2.08,0,0,1-.72.26,1.84,1.84,0,0,1-2.1-1.11,4.18,4.18,0,0,1-.3-1.14,10.87,10.87,0,0,1,0-2.42,40.63,40.63,0,0,1,3.58-12.08,18.25,18.25,0,0,1,1-1.83,13.2,13.2,0,0,1,.91-1.18c.23-.28.48-.54.7-.83.86-1.13,1.62-2.34,2.39-3.54l.91-1.43a24.92,24.92,0,0,1,4.51-5.26,34.06,34.06,0,0,1,6.62-4.6,58.37,58.37,0,0,1,8.19-3.58c2.84-1,5.73-1.9,8.61-2.78.15-.05.3-.08.44-.14a1,1,0,0,0,.6-.6.72.72,0,0,0-.58-1,7.66,7.66,0,0,0-2.66,0c-.75.18-1.5.35-2.26.51a9.27,9.27,0,0,1-2,.27,5,5,0,0,1-1.77-.27l-.9-.3a2,2,0,0,1,0-.36,15.6,15.6,0,0,1,2.17-4.92c.69-1.06,1.43-2.09,2.16-3.13s1.66-2.32,2.46-3.49a15.79,15.79,0,0,0,1.63-3,2.44,2.44,0,0,1,.1-.24,1,1,0,0,0-.83-1.33.73.73,0,0,0-.61.22,9.37,9.37,0,0,0-1,.94c-.53.63-1.06,1.26-1.54,1.93-.74,1-1.43,2.14-2.17,3.19-.55.79-1.12,1.56-1.71,2.32a12.74,12.74,0,0,1-3.3,2.89c-.07-.08-.16-.16-.23-.25l-.36-.5a4.48,4.48,0,0,1-.89-2.32c0-.5-.09-1-.09-1.49a8.66,8.66,0,0,0-.42-2.58,1,1,0,0,0-.91-.77,1.15,1.15,0,0,0-1.14.73,1.7,1.7,0,0,0-.08.45c0,.31-.06.61-.09.92a8.48,8.48,0,0,0,0,2c.12,1,.27,2,.43,3,.19,1.15.42,2.3.52,3.46a10.25,10.25,0,0,1-.26,3.78,6.4,6.4,0,0,1-3.22,4c-.43.24-.85.52-1.28.76s-1,.58-1.59.84a2.71,2.71,0,0,1-1.29.29,1.68,1.68,0,0,1-1.69-1.49,2.75,2.75,0,0,1,0-1.07,5.29,5.29,0,0,0-.24-3.38,5.37,5.37,0,0,0-.45-.81,2.47,2.47,0,0,0-.37-.35.38.38,0,0,0-.44,0,3.12,3.12,0,0,0-.45.34,5.27,5.27,0,0,0-.43.51,1.28,1.28,0,0,0-.26.66c-.31,2.34-.68,4.68-1.18,7a33,33,0,0,1-5.43,12.18c-.56.78-1.15,1.55-1.71,2.32-.26.35-.5.7-.74,1a2.66,2.66,0,0,1-.85.82,1.94,1.94,0,0,1-2.33-.28,2.91,2.91,0,0,1-.62-.93A5,5,0,0,1,503,1350a14,14,0,0,1,1.14-2.64c.6-1.08,1.24-2.14,1.86-3.21.51-.89,1-1.78,1.52-2.68a10.24,10.24,0,0,0,1-2.57,2.8,2.8,0,0,0,.08-1.22,1.76,1.76,0,0,0-.12-.45.65.65,0,0,0-1-.4,1.35,1.35,0,0,0-.51.34,3.6,3.6,0,0,0-.54.74c-.27.5-.5,1-.73,1.53s-.54,1.3-.82,2a9.06,9.06,0,0,1-.83,1.53A5.92,5.92,0,0,1,503,1344a1.69,1.69,0,0,1-2.45-.5,3.85,3.85,0,0,1-.28-.66,2.1,2.1,0,0,0-.54-.86.88.88,0,0,0-1-.25.77.77,0,0,0-.55.5,4.52,4.52,0,0,0-.2.9,4.19,4.19,0,0,0,.16,1.68,7.72,7.72,0,0,1-.37,5.47,12.56,12.56,0,0,1-1.15,2c-.45.64-.92,1.27-1.39,1.91s-.76,1.06-1.15,1.58a4.06,4.06,0,0,1-.46.55,1.83,1.83,0,0,1-2.41.15,3.64,3.64,0,0,1-.65-.65c-.37-.46-.69-.94-1-1.41s-.59-.79-.92-1.17a3.54,3.54,0,0,0-.65-.57,1.06,1.06,0,0,0-1.42.27.39.39,0,0,0-.05.39,2.92,2.92,0,0,0,.44.86,19.19,19.19,0,0,1,1.46,2.42,24.85,24.85,0,0,1,1.84,5.12c.4,1.6.68,3.22.94,4.85.35,2.15.64,4.31,1.13,6.43.21.9.45,1.8.72,2.68a9.45,9.45,0,0,1,.39,2,15.1,15.1,0,0,1,0,3.08,20.76,20.76,0,0,1-3.3,9.16s-3.6,6.12-5.47,1.83c-.25-.57-.46-.69-.65-.58a137.24,137.24,0,0,0-106-93.82,113.55,113.55,0,0,0-17.25-2c-.73,0-16.13,0-16.79,0a133.61,133.61,0,0,0-52.31,13.56,135.55,135.55,0,0,0-61.77,59.77,128.72,128.72,0,0,0-9.47,23.09c-.24-.64-.59-1-1,0-1.86,4.29-5.46-1.83-5.46-1.83a20.64,20.64,0,0,1-3.3-9.16,15.09,15.09,0,0,1,0-3.08,9.47,9.47,0,0,1,.4-2c.27-.88.51-1.78.72-2.68.49-2.12.78-4.28,1.12-6.43.26-1.63.54-3.25.94-4.85a25.48,25.48,0,0,1,1.85-5.12,18.08,18.08,0,0,1,1.46-2.42,2.92,2.92,0,0,0,.44-.86.42.42,0,0,0-.05-.39,1.06,1.06,0,0,0-1.42-.27,3.61,3.61,0,0,0-.66.57c-.32.38-.62.78-.92,1.17s-.68,1-1,1.41a3.39,3.39,0,0,1-.66.65,1.82,1.82,0,0,1-2.4-.15,4.13,4.13,0,0,1-.47-.55c-.39-.52-.76-1-1.15-1.58s-.94-1.27-1.39-1.91a12.5,12.5,0,0,1-1.14-2,7.61,7.61,0,0,1-.37-5.47,4.37,4.37,0,0,0,.15-1.68,3.91,3.91,0,0,0-.2-.9.74.74,0,0,0-.54-.5.89.89,0,0,0-1,.25,2.21,2.21,0,0,0-.54.86,3.19,3.19,0,0,1-.28.66,1.69,1.69,0,0,1-2.45.5,5.87,5.87,0,0,1-1-1.13,9.11,9.11,0,0,1-.84-1.53c-.27-.65-.53-1.3-.81-2s-.47-1-.73-1.53a3.65,3.65,0,0,0-.55-.74,1.31,1.31,0,0,0-.5-.34.66.66,0,0,0-1,.4,2.3,2.3,0,0,0-.12.45,3.14,3.14,0,0,0,.08,1.22,10.24,10.24,0,0,0,1,2.57c.49.9,1,1.79,1.53,2.68.61,1.07,1.25,2.13,1.85,3.21a13.41,13.41,0,0,1,1.14,2.64,5,5,0,0,1-.16,3.62,2.76,2.76,0,0,1-.62.93,1.93,1.93,0,0,1-2.33.28,2.63,2.63,0,0,1-.84-.82l-.74-1c-.57-.77-1.15-1.54-1.71-2.32a32.88,32.88,0,0,1-5.43-12.18c-.51-2.31-.88-4.65-1.19-7a1.27,1.27,0,0,0-.25-.66c-.14-.17-.28-.36-.43-.51a3.9,3.9,0,0,0-.46-.34.36.36,0,0,0-.43,0,1.78,1.78,0,0,0-.37.35,4.62,4.62,0,0,0-.45.81,5.23,5.23,0,0,0-.25,3.38,2.75,2.75,0,0,1,.06,1.07,1.69,1.69,0,0,1-1.69,1.49,2.75,2.75,0,0,1-1.3-.29c-.54-.26-1.06-.54-1.59-.84s-.84-.52-1.28-.76a6.46,6.46,0,0,1-3.22-4,10.25,10.25,0,0,1-.25-3.78c.1-1.16.32-2.31.51-3.46.16-1,.31-2,.44-3a9.08,9.08,0,0,0,0-2l-.09-.92a2.24,2.24,0,0,0-.09-.45,1.15,1.15,0,0,0-1.13-.73,1,1,0,0,0-.92.77,9,9,0,0,0-.42,2.58c0,.49,0,1-.09,1.49a4.39,4.39,0,0,1-.88,2.32c-.13.16-.24.34-.37.5a2.73,2.73,0,0,1-.23.25,12.86,12.86,0,0,1-3.29-2.89c-.6-.76-1.17-1.53-1.72-2.32-.73-1-1.42-2.14-2.17-3.19-.48-.67-1-1.3-1.53-1.93a12,12,0,0,0-.95-.94.74.74,0,0,0-.61-.22,1,1,0,0,0-.83,1.33l.09.24a16.37,16.37,0,0,0,1.63,3c.8,1.17,1.65,2.32,2.46,3.49s1.47,2.07,2.17,3.13a15.81,15.81,0,0,1,2.16,4.92,3.48,3.48,0,0,1,.05.36l-.9.3a5.11,5.11,0,0,1-1.77.27,9.36,9.36,0,0,1-2-.27c-.75-.16-1.51-.33-2.26-.51a7.61,7.61,0,0,0-2.65,0,.73.73,0,0,0-.59,1,1,1,0,0,0,.6.6c.14.06.29.09.44.14,2.89.88,5.78,1.75,8.61,2.78a57.86,57.86,0,0,1,8.19,3.58,34.06,34.06,0,0,1,6.62,4.6,24.92,24.92,0,0,1,4.51,5.26c.3.48.61,1,.92,1.43.76,1.2,1.52,2.41,2.38,3.54.22.29.48.55.7.83a11.57,11.57,0,0,1,.91,1.18,18.25,18.25,0,0,1,1,1.83,40.63,40.63,0,0,1,3.58,12.08,9.79,9.79,0,0,1,0,2.42,3.57,3.57,0,0,1-.3,1.14,1.83,1.83,0,0,1-2.09,1.11,2,2,0,0,1-.72-.26,5.94,5.94,0,0,1-1-.68,14.15,14.15,0,0,1-1.08-1.11,24.14,24.14,0,0,1-2.3-3.28c-1.45-2.49-2.95-4.95-4.44-7.42s-3-5-4.4-7.67a55.31,55.31,0,0,1-3.61-8.46,3.64,3.64,0,0,0-.33-.69,1.41,1.41,0,0,0-.36-.37.74.74,0,0,0-1.15.32,1.44,1.44,0,0,0-.09.4,1.82,1.82,0,0,0,.13.76l.15.48c.09.3.16.6.27.89s.29.66.43,1,.37.92.51,1.4a3.57,3.57,0,0,1-.47,3,6,6,0,0,1-2.9-.6,15,15,0,0,1-2.36-1.46,43.13,43.13,0,0,1-4.3-3.69c-1.85-1.76-3.68-3.54-5.54-5.3a45.35,45.35,0,0,0-4.2-3.63,12.12,12.12,0,0,0-1.95-1.24,8.06,8.06,0,0,0-1.15-.45,1.23,1.23,0,0,0-1,0c0,.09,0,.18,0,.26a1.45,1.45,0,0,0,.06.3,3.66,3.66,0,0,0,.42,1,8.94,8.94,0,0,0,1,1.31,17.09,17.09,0,0,0,1.88,1.83c1,.83,2,1.64,3,2.45,1.19,1,2.39,1.91,3.5,3a13.31,13.31,0,0,1,1.55,1.72,5.78,5.78,0,0,0,.6.71,27.36,27.36,0,0,0,3.49,3c1.61,1.18,3.29,2.24,5,3.31,1.4.9,2.79,1.8,4.14,2.79a27.82,27.82,0,0,1,4.25,3.79,17.42,17.42,0,0,1,3.73,6.57,2.53,2.53,0,0,1,.09,1.12,1.7,1.7,0,0,1-1.81,1.54,2.85,2.85,0,0,1-1-.26,7,7,0,0,1-1.52-.87c-.78-.59-1.56-1.18-2.31-1.8-1.8-1.49-3.49-3.1-5.2-4.69-2.25-2.09-4.46-4.22-6.78-6.24-1-.89-2.07-1.74-3.18-2.53a13,13,0,0,0-2.29-1l-.1,0c-.23,0-.38,0-.45.23a1.57,1.57,0,0,0-.07.86,2.33,2.33,0,0,0,.49,1,8.07,8.07,0,0,0,.85.9c.58.48,1.18.94,1.78,1.4s1.33,1,2,1.47a13.09,13.09,0,0,1,1.78,1.63,5.68,5.68,0,0,1,1.38,3.2.58.58,0,0,1,0,.13l-.71.24a4.9,4.9,0,0,1-1.82.26,8,8,0,0,1-2.41-.5,27.13,27.13,0,0,1-2.84-1.2l-3.12-1.45a9.85,9.85,0,0,0-1.9-.63,3.3,3.3,0,0,0-1.53-.06,1.68,1.68,0,0,0-.76.42.55.55,0,0,0-.07.75,1.54,1.54,0,0,0,.35.37,8,8,0,0,0,1,.68q2.2,1.11,4.43,2.17a37.19,37.19,0,0,0,4.87,2,18.27,18.27,0,0,0,6.69.9,6.81,6.81,0,0,1,4.73,1.41c.52.41,1.06.82,1.59,1.22a42.85,42.85,0,0,0,3.63,2.53,13.78,13.78,0,0,0,4.27,1.72,6.79,6.79,0,0,1,3.76,2.1,3.45,3.45,0,0,0,.51.42c1.44,1,2.93,2,4.43,2.92s3.16,2,4.68,3.09a31.38,31.38,0,0,1,4.72,4,19.57,19.57,0,0,1,2.94,4c.5.9,1.07,1.76,1.65,2.6.76,1.09,1.52,2.17,2.26,3.26a36.79,36.79,0,0,1,2.21,3.59,10.48,10.48,0,0,1,.88,2.14,4.2,4.2,0,0,1,.17,1.32,2.19,2.19,0,0,1-1.64,2.07,3.86,3.86,0,0,1-1.07.11,8.38,8.38,0,0,1-1.57-.23c-2.14-.41-4.28-.81-6.42-1.24a46.9,46.9,0,0,1-5.81-1.54,24.82,24.82,0,0,1-5.61-2.65,16,16,0,0,1-5.8-6.47,17.27,17.27,0,0,0-1.5-2.52c-1-1.35-2-2.68-3-4-.88-1.16-1.75-2.33-2.52-3.58a17.45,17.45,0,0,1-2.4-6,11,11,0,0,0-.5-1.67,3.79,3.79,0,0,0-.45-.81.69.69,0,0,0-.55-.33,1,1,0,0,0-1.18.7c0,.1-.06.2-.08.3a5.69,5.69,0,0,0,0,1.84c0,.44.14.88.2,1.32a5.06,5.06,0,0,1,.05.77,2.15,2.15,0,0,1-1.73,2,4.33,4.33,0,0,1-.71.1,7.77,7.77,0,0,1-1.74-.14,14.15,14.15,0,0,0-2.15-.24,5.71,5.71,0,0,1-3.51-1.28,8.46,8.46,0,0,1-1-.9c-.5-.55-1-1.12-1.43-1.69s-.87-1.06-1.3-1.59a1.47,1.47,0,0,0-1.38-.54,1.26,1.26,0,0,0-1.18,1.62.83.83,0,0,1,0,.15,3.82,3.82,0,0,1,.05,1.12,1.71,1.71,0,0,1-1.67,1.53,3.09,3.09,0,0,1-1-.15c-.78-.23-1.55-.46-2.31-.72s-1.59-.54-2.41-.72a4.61,4.61,0,0,0-1.38-.15,2.46,2.46,0,0,0-.6.12.77.77,0,0,0-.36,1.22,3.49,3.49,0,0,0,.45.49,4.61,4.61,0,0,0,1.18.72l1.79.8a41.65,41.65,0,0,0,5.94,2.14,11.86,11.86,0,0,0,2.37.48,2.14,2.14,0,0,1,.69.18,5.13,5.13,0,0,1,2.47,1.93,2.94,2.94,0,0,1,.44.93,1.8,1.8,0,0,1-1.27,2.3,2.85,2.85,0,0,1-.65.11c-.33,0-.65,0-1,0-1.09-.1-2.18-.21-3.27-.38a30.53,30.53,0,0,1-6.16-1.61,34.26,34.26,0,0,1-6.34-3.27c-1.92-1.23-3.77-2.58-5.59-4a2.21,2.21,0,0,0-1.39-.44,1,1,0,0,0-1.07,1,2.87,2.87,0,0,0,.05.92,3.5,3.5,0,0,0,1.38,2,6.19,6.19,0,0,1,1.32,1.43,2,2,0,0,1,.17.32,1.55,1.55,0,0,1-.42,1.87,3.54,3.54,0,0,1-.64.42l-1.9.91a6.92,6.92,0,0,1-.86.33,6.14,6.14,0,0,1-2.13.3,6,6,0,0,1-3-1,9.78,9.78,0,0,1-1.8-1.53,27.18,27.18,0,0,1-2.37-3c-.52-.72-1-1.45-1.57-2.17a13.74,13.74,0,0,0-1.58-1.83,5.12,5.12,0,0,0-1.37-1,2.63,2.63,0,0,0-1.81-.17.7.7,0,0,0-.57,1,2.3,2.3,0,0,0,.12.34,6.33,6.33,0,0,0,.36.68c.28.43.57.85.87,1.27s.68.91,1,1.38a4.42,4.42,0,0,1,.49,1,1.7,1.7,0,0,1-1.37,2.31l-.2,0a7.11,7.11,0,0,1-2.11-.07c-.91-.14-1.82-.33-2.72-.53-1.34-.28-2.67-.63-4-.82a7.8,7.8,0,0,0-2.41,0,2.54,2.54,0,0,0-1.47.68.71.71,0,0,0-.11,1,1.5,1.5,0,0,0,.42.45,5.15,5.15,0,0,0,.79.47,7.52,7.52,0,0,0,1.56.52,2.48,2.48,0,0,1,.39.1,3.87,3.87,0,0,0,1.09.31l4.36.71c1.34.21,2.68.43,4,.74a10.17,10.17,0,0,1,2.33.79,3,3,0,0,1,.79.57,1.71,1.71,0,0,1,.06,2.41,3.53,3.53,0,0,1-.58.51c-.85.6-1.72,1.18-2.57,1.79-.49.35-1,.72-1.42,1.11a5.57,5.57,0,0,0-.69.76,1.77,1.77,0,0,0-.33.8.82.82,0,0,0,.8,1,2.76,2.76,0,0,0,.86-.07,7.81,7.81,0,0,0,2.83-1.32,36.65,36.65,0,0,1,9.88-5.11,41.3,41.3,0,0,1,13-2.09,52.14,52.14,0,0,1,7.69.54q2.66.38,5.26,1c2,.47,4,1.07,6,1.7a11.17,11.17,0,0,1,1.25.49,13.68,13.68,0,0,1,2.78,1.75c.7.56,1.38,1.13,2.07,1.69a13,13,0,0,0,2.42,1.66,3.61,3.61,0,0,1,.91.65,2,2,0,0,1,.44,2.41,1.07,1.07,0,0,1-.37.42,5.49,5.49,0,0,1-1.4.62,7.74,7.74,0,0,1-2.35.24,17.78,17.78,0,0,1-3.75-.61c-1.59-.41-3.15-.93-4.72-1.43a51.77,51.77,0,0,0-5-1.45,9.91,9.91,0,0,0-2.6-.27,8.15,8.15,0,0,1-3.28-.55,23.34,23.34,0,0,1-3.14-1.53c-.79-.45-1.57-.92-2.37-1.35-.6-.33-1.22-.63-1.84-.92a6.79,6.79,0,0,0-1.71-.53,2.72,2.72,0,0,0-2.23.55.55.55,0,0,0-.13.81,1.45,1.45,0,0,0,.39.39,8.09,8.09,0,0,0,1,.56c.5.26,1,.47,1.53.72a12,12,0,0,1,1.16.66,4.13,4.13,0,0,1,1.63,2.5l0,.07a.57.57,0,0,1-.13.08,21.6,21.6,0,0,1-6.53,1.95,48.13,48.13,0,0,1-6,.42l-7.1.1a30.66,30.66,0,0,0-3.59.29c-.63.08-1.26.16-1.89.26a3.7,3.7,0,0,0-1.4.48,2,2,0,0,0-.68.61.84.84,0,0,0,.23,1.22,3.35,3.35,0,0,0,.75.33,7.06,7.06,0,0,0,1.93.3c.94,0,1.89,0,2.83,0,1.73-.11,3.45-.27,5.18-.42a32.21,32.21,0,0,1,3.8-.17c.45,0,.89.06,1.33.1s.62.09.93.08c.82,0,1.64,0,2.46-.1a31,31,0,0,0,4.07-.64c1.82-.4,3.64-.83,5.46-1.24a41.43,41.43,0,0,1,6.45-1,19.26,19.26,0,0,1,5.67.46,16,16,0,0,1,3,1,3.6,3.6,0,0,1,1.27,1,1.62,1.62,0,0,1-.33,2.47,2.39,2.39,0,0,1-.49.28,8.87,8.87,0,0,1-.87.29,12.46,12.46,0,0,1-2.33.39c-1.49.13-3,.25-4.47.31-3.05.13-6.11.21-9.16.32-2,.07-4,.18-6,.43a11.46,11.46,0,0,0-2,.4,1.22,1.22,0,0,0-.55.26,1.41,1.41,0,0,1-.71.38.91.91,0,0,0-.59.46,1.08,1.08,0,0,0,.62,1.47,1.77,1.77,0,0,0,.46.08,9.52,9.52,0,0,0,1.69.06c1.24-.06,2.46-.28,3.69-.39a12.42,12.42,0,0,1,3.28.05,8.28,8.28,0,0,1,2.62,1.07c-.17.34-.33.66-.5,1a4,4,0,0,1-1.1,1.34,8.81,8.81,0,0,1-1.48.94c-1,.49-2,.85-3,1.24s-2,.74-3,1.13a7.15,7.15,0,0,0-1.68.9,5.43,5.43,0,0,0-.76.68,1.47,1.47,0,0,0-.38,1,.62.62,0,0,0,.3.56,1.81,1.81,0,0,0,.87.27,7,7,0,0,0,1.65-.06,16.88,16.88,0,0,0,3-.82,38.36,38.36,0,0,0,7-3.41,26.79,26.79,0,0,0,3.61-2.56c.33-.27.62-.59.92-.89s.35-.38.55-.54a8.8,8.8,0,0,1,3.43-1.71,26.46,26.46,0,0,1,3.54-.61c1-.13,1.94-.26,2.9-.43a8.15,8.15,0,0,0,2.62-.9,23.72,23.72,0,0,1,2.84-1.33,10.76,10.76,0,0,1,4.15-.84,1.83,1.83,0,0,0,.46-.07l5.6-1.33a48.33,48.33,0,0,1,8.27-1.34,21.73,21.73,0,0,1,5.63.41,29.21,29.21,0,0,1,4.85,1.94s7.29,3.41,4.22,3.78c-.82.09-.27.21,1,.34a135.63,135.63,0,0,0-78.38,55.95,137.43,137.43,0,0,0-21.12,51.94,123.38,123.38,0,0,0-2,16.81c-.06,1.27-.07,15.88,0,17.11a133.69,133.69,0,0,0,15.93,56.74q26.76,49.38,80.34,66.56a124,124,0,0,0,16,3.82c.36.06.72.16,1.17.25.18.68.38,1.32.52,2a133.59,133.59,0,0,0,35.17,66.13,136.54,136.54,0,0,0,68.94,38.69,123.76,123.76,0,0,0,19.64,2.92c1.5.1,3,.25,4.5.43.5.06,13.31,0,14-.09,2.77-.29,5.55-.51,8.32-.8a130.19,130.19,0,0,0,28.6-6.3c29.09-10,52.5-27.5,69.93-52.87a130.72,130.72,0,0,0,20.4-47.65c.15-.73.34-1.46.53-2.29a9.64,9.64,0,0,1,1.22-.39A132.72,132.72,0,0,0,522.93,1672c27.64-13.19,48.53-33.45,62.83-60.5a134.89,134.89,0,0,0,13.65-40.26,89,89,0,0,0,1.56-15.71c0-.81,0-15.45,0-16.11M519.66,1396a12.41,12.41,0,0,1,1.29-2.27c.48-.68,1-1.33,1.47-2a27.14,27.14,0,0,0,2-2.78l.23-.34a8.74,8.74,0,0,1,4.15-3.08,19.13,19.13,0,0,1,4.41-1,1.73,1.73,0,0,1,2,1.72,4.56,4.56,0,0,1-.08.82,5.27,5.27,0,0,1-.51,1.39,19.55,19.55,0,0,1-2.09,3.3,3.91,3.91,0,0,1-.77.75c-.36.27-.71.55-1.05.83l-3.67,3.07a38.39,38.39,0,0,1-3.72,2.75,19.83,19.83,0,0,1-4.06,1.89,18.82,18.82,0,0,1-.21-2.19,7.22,7.22,0,0,1,.66-2.89m-25.5-33.16a13,13,0,0,1,1.31-4.56,12.5,12.5,0,0,1,2.59-3.44,1.63,1.63,0,0,1,2.51.24,2,2,0,0,1,.19.31c.21.49.43,1,.62,1.47a17.25,17.25,0,0,1,1,6.42,23.87,23.87,0,0,1-.24,3.43c-.23,1.64-.5,3.28-.76,4.93-.22,1.44-.45,2.88-.55,4.33a2.75,2.75,0,0,1-.29,1,1.53,1.53,0,0,1-2.23.64,2.94,2.94,0,0,1-.76-.69,7,7,0,0,1-1-1.72,35.73,35.73,0,0,1-1.93-6,19.64,19.64,0,0,1-.47-6.44m-284.74,6.44a35.73,35.73,0,0,1-1.93,6,7.34,7.34,0,0,1-1,1.72,2.94,2.94,0,0,1-.76.69,1.52,1.52,0,0,1-2.22-.64,2.75,2.75,0,0,1-.29-1c-.11-1.45-.34-2.89-.56-4.33-.25-1.65-.53-3.29-.75-4.93a24,24,0,0,1-.25-3.43,17.45,17.45,0,0,1,1-6.42c.19-.5.41-1,.62-1.47a1.92,1.92,0,0,1,.18-.31,1.63,1.63,0,0,1,2.51-.24,12.5,12.5,0,0,1,2.59,3.44,13,13,0,0,1,1.32,4.56,20.2,20.2,0,0,1-.47,6.44m-24.59,31.8a19.5,19.5,0,0,1-4.05-1.89,37.2,37.2,0,0,1-3.72-2.75l-3.68-3.07c-.34-.28-.69-.56-1-.83a3.86,3.86,0,0,1-.76-.75,19.61,19.61,0,0,1-2.1-3.3,5.65,5.65,0,0,1-.51-1.39,3.79,3.79,0,0,1-.07-.82,1.72,1.72,0,0,1,2-1.72,19,19,0,0,1,4.4,1,8.74,8.74,0,0,1,4.15,3.08c.08.12.17.23.23.34a25.75,25.75,0,0,0,2,2.78c.49.66,1,1.31,1.46,2a12.46,12.46,0,0,1,1.3,2.27,7.21,7.21,0,0,1,.65,2.89,15.28,15.28,0,0,1-.21,2.19m383,154.38a114.71,114.71,0,0,1-63.08,94.23,112.25,112.25,0,0,1-32.95,10.66c-1.19.19-2.38.35-3.57.55-2.07.33-2.19.46-2.62,2.47-.67,3.16-1.24,6.35-2,9.49a114.85,114.85,0,0,1-81.19,83,115.09,115.09,0,0,1-19.76,3.52,112.58,112.58,0,0,1-17.61.24,111.34,111.34,0,0,1-54.13-17.74c-26.68-17.3-43.44-41.62-50.59-72.58-.42-1.83-.72-3.69-1-5.55-.37-2.09-.75-2.51-2.84-2.87s-4-.6-6-1a115,115,0,0,1-89.92-83.45,107.31,107.31,0,0,1-3.48-21.37c-.16-2.7-.29-5.41-.41-7.8.6-31.65,11.58-58.69,33.64-81,16.21-16.41,35.84-26.71,58.38-31.49,2.21-.47,4.46-.76,6.68-1.13s2.74-.86,3-3.2c3-25.35,13.11-47.45,30.67-66a113,113,0,0,1,57.95-33.17,110.28,110.28,0,0,1,30.51-2.74c29.53,1.55,54.93,12.67,76,33.43,16.83,16.62,27.23,36.77,31.83,59.94.47,2.36.73,4.76,1.09,7.14.09.6.16,1.2.26,1.79.34,2.11.7,2.45,2.86,2.81,1.86.31,3.72.58,5.57,1,27,5.42,49.39,18.59,67,39.8a112.35,112.35,0,0,1,24,50.71,113.74,113.74,0,0,1,1.84,30.36" transform="translate(-103.49 -1295.33)"/><g class="cls-11"><g class="cls-12"><line class="cls-13" x1="255.87" y1="270.62" x2="254.94" y2="270.02"/></g></g><g class="cls-11"><g class="cls-14"><path class="cls-13" d="M357.56,1564.76v0l.88.57Z" transform="translate(-103.49 -1295.33)"/></g></g></g><g class="cls-15"><g class="cls-16"><rect class="cls-17" x="231.99" y="1451.4" width="93.9" height="105.75" transform="translate(-1216.78 -425.38) rotate(-55)"/></g></g><g class="cls-18"><g class="cls-19"><rect class="cls-20" x="357.71" y="1479.52" width="80.06" height="79.53" transform="translate(-1147.84 -397.99) rotate(-52)"/></g></g><g class="cls-8"><path class="cls-10" d="M502.77,1573.91a51.34,51.34,0,0,0,12-35.57c0-.89-.08-1.8-.16-2.7a48.34,48.34,0,0,0-12.24-29.08A76.65,76.65,0,0,0,478,1488.38c-15.16-7.23-30.87-8.88-47.12-4.3a71.65,71.65,0,0,0-14.74,6L425.4,1505a53.63,53.63,0,0,1,10.79-4.26c13-3.52,25.26-1.56,36.94,4.79a58.48,58.48,0,0,1,16,12.48,31.69,31.69,0,0,1,8.18,20.31,41.83,41.83,0,0,1-.13,5.11c-1.37,15.36-11.84,27.59-28.38,31.54l9.57,15.43a52.38,52.38,0,0,0,24.41-16.51" transform="translate(-103.49 -1295.33)"/></g><g class="cls-21"><g class="cls-22"><polygon class="cls-23" points="147.85 412.47 218.43 246.2 336.92 295.36 266.34 461.64 147.85 412.47"/></g></g><g class="cls-8"><path class="cls-10" d="M292.88,1584.06l-9-14.46a85.1,85.1,0,0,1-10.41,4.7c.19-.33.37-.67.57-1,1.9-6,2.29-7.51-6.86-17.34-1.4-1.51-4-2,2.75-5.52s9.8-12.81,6-20a12.81,12.81,0,0,0-10.62-7.17s13.89,7.7,7,15.67-13.2,12.89-16.08,12.36-.78-7.84,4.32-11.69c0,0-6.15.57-8.89,7.86s-3.14,4.22-3.53,3-1-8.16,2.87-12.81c0,0-6.71,4.38-7.34,10.49s1.72,6.38-3,6.64-5.75-11.29,0-18.33c0,0-6.41,4.54-7.06,9.7s-.92,9.29-3.53,4.31c-1.7-1.52,1-13.08,2-14.41,0,0-10.48,11.16-2.89,23.12s19.36,1.46,22,0,1.69,1.19,7.18.13,9.42,4.38,8.37,6.38c-.78,4.11-5,8.5-11.24,9.56a19.94,19.94,0,0,0-5.92,2.15,23.69,23.69,0,0,0-2,1.25l-.05,0c-3.43,2.35-5.93,5.44-5.32,8,1,4.38,8,4.25,8,.66s-1.77-5.45,1.93-2.66-1.71,11.16-8.36,7-4.76-9.9-.13-13.34a56.48,56.48,0,0,1-21.37-6.89c-9.4-5.24-14.44-13.59-15.67-24.16a47.18,47.18,0,0,1-.24-8.92,49.11,49.11,0,0,1,5.67-19.21c1.29-2.52,3.06-5.61,5.32-7.38a63.47,63.47,0,0,1,23.36-12l-7-11.29-2.56-4.13A79.9,79.9,0,0,0,210.38,1495a44.08,44.08,0,0,0-13.25,14.62c-5.06,9.42-8,18.77-8.44,28.7a65,65,0,0,0,.8,13.52c2.58,15.92,11.14,27.87,25.35,35.56a72.13,72.13,0,0,0,25.39,8.09,83.4,83.4,0,0,0,8.41.63,79.07,79.07,0,0,0,19.71-2,96.24,96.24,0,0,0,22.11-8.18c.91-.46,1.79-1,2.69-1.44Z" transform="translate(-103.49 -1295.33)"/><g class="cls-24"><g class="cls-25"><path class="cls-26" d="M446.48,1558.14c-.33,0-.66.08-1,.13a4.42,4.42,0,0,0,1-.13" transform="translate(-103.49 -1295.33)"/></g></g><path class="cls-26" d="M446.34,1578.6l0,0h0l0,0" transform="translate(-103.49 -1295.33)"/></g><g class="cls-27"><g class="cls-28"><rect class="cls-29" x="247.07" y="1458.06" width="151.15" height="121.16" transform="translate(-1309.78 -46.44) rotate(-68)"/></g></g><g class="cls-8"><path class="cls-9" d="M349.07,1755.61c-1.9-.16-3.8-.33-5.7-.47a107.71,107.71,0,0,1-37.28-9.75,111,111,0,0,1-61.87-76.5c-.79-3.41-1.47-6.86-2.19-10.29a1,1,0,0,0-1.08-1,111.16,111.16,0,0,1-96.85-85.22,106,106,0,0,1-2.7-19.18,4.39,4.39,0,0,0-.17-.67V1542c.15-1.54.33-3.07.47-4.61a107,107,0,0,1,18.12-51.47c16.75-24.8,39.86-40.41,69-47,4.23-1,8.56-1.49,12.95-2.23.22-2.07.45-4.28.71-6.49a110.76,110.76,0,0,1,89.62-95.29c4.81-.88,9.73-1.19,14.6-1.77a6,6,0,0,0,.67-.17h10.32c1.54.16,3.07.33,4.61.46a104.14,104.14,0,0,1,39.35,11.09c30.59,15.77,50.25,40.34,58.69,73.75a95.89,95.89,0,0,1,2.71,17.6,6.11,6.11,0,0,0,.11.7c5.37,1,10.67,1.77,15.85,3a110.76,110.76,0,0,1,84.67,103.68,5.61,5.61,0,0,0,.17.91v6.24c-.16,1.95-.33,3.89-.47,5.83a107.61,107.61,0,0,1-10.06,38.06A111.16,111.16,0,0,1,474.43,1656c-3.44.69-6.92,1.13-10.4,1.63-.62.09-.88.27-1,.89-.92,4.37-1.76,8.76-2.85,13.08a111.22,111.22,0,0,1-78.32,80,108,108,0,0,1-25,3.83,9.34,9.34,0,0,0-1,.16Zm2.51-5.22a104,104,0,0,0,23.49-2.41c25.33-5.62,45.85-18.89,61.7-39.33a103.49,103.49,0,0,0,20-45.47c.42-2.31,1.27-4.68,0-7-1.16-2.14-2.35-4.25-3.55-6.37a17,17,0,0,1-1.19-1.93,1.55,1.55,0,0,1,.08-1.38,1.79,1.79,0,0,1,1.49-.23,11.57,11.57,0,0,1,1.73,1c2.48,1.36,4.91,2.83,7.49,4a10,10,0,0,0,4.42.81,46.4,46.4,0,0,0,6.36-1.07,103.59,103.59,0,0,0,56.15-31.14c17.39-18.38,26.78-40.36,28.64-65.58a101,101,0,0,0-2.79-32.32c-6.31-25.07-20-45.21-40.86-60.46a104.49,104.49,0,0,0-43.13-18.36c-2.7-.51-5.37-1-8.13,0a37.19,37.19,0,0,0-9.14,4.93c-.68.48-1.46,1-2.24.23s-.08-1.48.3-2.16c.1-.17.23-.33.33-.5,1.15-1.91,2.41-3.77,3.42-5.76s1.9-4,1.62-6.29c-.46-3.68-.91-7.37-1.67-11-4.61-22-15-40.82-31.55-56q-31.8-29.3-75.22-28.35a94.26,94.26,0,0,0-19.8,2.45q-50,11.92-72.61,58.06a101.87,101.87,0,0,0-9.34,31.76,17.52,17.52,0,0,0-.19,5.1c.65,3.82,2.72,7,4.92,10.16.54.76,1.53,1.65.53,2.62s-1.75,0-2.55-.51a77,77,0,0,0-7.07-4,11.85,11.85,0,0,0-5.64-1.27,79,79,0,0,0-11.6,2.26c-26.14,6.91-46.91,21.53-61.94,44a103.19,103.19,0,0,0-17.62,61.84,100.07,100.07,0,0,0,2.3,19q8.63,38.63,40.24,62.47a104.34,104.34,0,0,0,45.8,19.53,16.16,16.16,0,0,0,4.84.3c3.68-.52,6.83-2.37,9.84-4.47a10.66,10.66,0,0,1,2-1.25,1.55,1.55,0,0,1,1.38.21,1.65,1.65,0,0,1,.15,1.38,8.41,8.41,0,0,1-.91,1.54c-1.3,2.28-2.66,4.54-3.84,6.88a5.46,5.46,0,0,0-.65,3,105.28,105.28,0,0,0,10.71,33.69c18.22,35.37,54.43,57.47,93.26,57.47" transform="translate(-103.49 -1295.33)"/></g><g class="cls-30"><g class="cls-31"><rect class="cls-32" x="343.41" y="1483.38" width="135.44" height="150.98" transform="translate(-1205.13 -293.82) rotate(-55)"/></g></g></g></svg>